/* XPM */
static char *f30a74c020164ac2ef01b8c129f2524bbjFGoSdszQi9HTOV[] = {
/* columns rows colors chars-per-pixel */
"32 32 186 2 ",
"   c #050100",
".  c #17130E",
"X  c #161513",
"o  c #291F16",
"O  c #311D14",
"+  c #2C2016",
"@  c #2C2925",
"#  c #2E2D2A",
"$  c #2A2623",
"%  c #312C26",
"&  c #342F29",
"*  c #373632",
"=  c #393530",
"-  c #3C3835",
";  c #3F3B38",
":  c #423D37",
">  c #4D3D34",
",  c #433E3A",
"<  c #44423F",
"1  c #544334",
"2  c #54463A",
"3  c #614E3D",
"4  c #444443",
"5  c #4B4640",
"6  c #4E4A46",
"7  c #4F4B48",
"8  c #534C45",
"9  c #514D49",
"0  c #5B5147",
"q  c #56514D",
"w  c #58534D",
"e  c #5C5752",
"r  c #5F5A56",
"t  c #5D5B5A",
"y  c #565553",
"u  c #614D42",
"i  c #645347",
"p  c #60564C",
"a  c #67594E",
"s  c #6C5B4C",
"d  c #635C54",
"f  c #645E59",
"g  c #66615B",
"h  c #6B645C",
"j  c #726254",
"k  c #71665D",
"l  c #74685E",
"z  c #7C6D5A",
"x  c #666462",
"c  c #696561",
"v  c #6D6965",
"b  c #736B63",
"n  c #7A6D62",
"m  c #736E6A",
"M  c #7C7164",
"N  c #75706C",
"B  c #7C746C",
"V  c #757472",
"C  c #7C7672",
"Z  c #7E7974",
"A  c #7E7C79",
"S  c #836E5D",
"D  c #837264",
"F  c #82776C",
"G  c #85796C",
"H  c #8C7B6C",
"J  c #907F6F",
"K  c #807770",
"L  c #847C75",
"P  c #8D7F72",
"I  c #817E7A",
"U  c #887F78",
"Y  c #907E70",
"T  c #8D806F",
"R  c #8A8177",
"E  c #85827D",
"W  c #8B837C",
"Q  c #938373",
"!  c #998677",
"~  c #94867B",
"^  c #94897E",
"/  c #9C8B7C",
"(  c #A4937F",
")  c #8C8681",
"_  c #8D8985",
"`  c #8F8B89",
"'  c #928780",
"]  c #948C83",
"[  c #9A8E83",
"{  c #938E89",
"}  c #979187",
"|  c #9B9186",
" . c #96918B",
".. c #9B938B",
"X. c #9B9691",
"o. c #9E9A94",
"O. c #A08E81",
"+. c #A49485",
"@. c #A89787",
"#. c #A69986",
"$. c #A3968C",
"%. c #AA968E",
"&. c #A3998B",
"*. c #AB9B8D",
"=. c #A29693",
"-. c #A49C93",
";. c #A99D93",
":. c #A39E99",
">. c #B09E90",
",. c #B2A18F",
"<. c #ADA193",
"1. c #A5A19C",
"2. c #ABA39C",
"3. c #B4A495",
"4. c #B2A69B",
"5. c #B4AA9D",
"6. c #BBAC9D",
"7. c #BCAA96",
"8. c #BBB09E",
"9. c #A6A5A1",
"0. c #ABA6A1",
"q. c #AEA9A3",
"w. c #AEADA9",
"e. c #B0A7A0",
"r. c #B4ACA3",
"t. c #BAAEA2",
"y. c #B4AEA9",
"u. c #B9AEAA",
"i. c #BCB1A5",
"p. c #B6B2AD",
"a. c #BCB4AB",
"s. c #BFB8AE",
"d. c #BBB6B1",
"f. c #BEB9B3",
"g. c #C1AF9D",
"h. c #C0AEA0",
"j. c #C2B2A4",
"k. c #C8B7A5",
"l. c #C2B6AB",
"z. c #C3B9AE",
"x. c #CBBBAC",
"c. c #C5B7B6",
"v. c #C4BCB3",
"b. c #C9BDB3",
"n. c #C3BDB9",
"m. c #C9BEBA",
"M. c #C5C0B6",
"N. c #CCC1B6",
"B. c #C6C2BC",
"V. c #CBC4BC",
"C. c #CCC8BE",
"Z. c #D2C4B9",
"A. c #D6C9BB",
"S. c #DACABD",
"D. c #D3C3B4",
"F. c #CCC6C1",
"G. c #CFCAC1",
"H. c #D2C7C1",
"J. c #D4CBC3",
"K. c #D9CDC3",
"L. c #D4CDC9",
"P. c #D9CDCF",
"I. c #DCD2C5",
"U. c #D6D2CB",
"Y. c #DED4CB",
"T. c #DFD6CE",
"R. c #DBD3CB",
"E. c #DFD8CE",
"W. c #DCD7D1",
"Q. c #DDD8D4",
"!. c #E0D1C5",
"~. c #E1D6CD",
"^. c #E2D9CF",
"/. c #EBDBCB",
"(. c #E0D7D2",
"). c #E2DBD5",
"_. c #E3DBD2",
"`. c #E8DFD6",
"'. c #E7DED9",
"]. c #E4E0D6",
"[. c #EDE2D6",
"{. c #E5E0DC",
"}. c #EAE4DB",
"|. c #F1E8D9",
" X c #EFE8E0",
".X c #F6ECE1",
/* pixels */
"> $.%.O u j Y %.$./ %.;.' c.P.=.` n.d.d.c.F.F.m.p.b.s.s.w.1. .` ",
"O.%.i O.G > @.g./ +.[ ' 4.u.c.m.2.u.W.F.2.V.F.:.i.z.i.5.2.1.X. .",
"K.D.n x.x.j x./.+.6.t.z.(.~.m.P.v.r.'.'.a.`.R.z.J.N.a.M.z.r.p.w.",
"c.b.O.Z.K.Y x.7.G 5.6.2.K.(.e.c.R | L.B.a.R.J.4.V.8.| N.t.} r. .",
"1.f.r.z.2.r.} 2.a._.2.v.y.L.f.f.o.q.r.M.p.C.p.A.s.5.-.R _ R C y ",
"M.U.R.U.-.v.} C.v.`.C.V.f.U.Q.{.2.2.y.B.J.R.M._.M.M.a.5.2.o.X. .",
"f.F.F.J.2.V.-.v.a.}.L.0.F.).).).o.2.C.C.R.'.L.~.J.A.z.J.J.p.1.w.",
"s.v.z.J.r.R.| v.z..XV.z.c.`.Z.^.<.} a.E.c.J.t.a.5.i.+.l.a...F 2.",
"j z j P D ! M / 3.3.%.+.*.!.D.D.3.>.@.6.3.j.! / T ,.Q z s 2 s / ",
"s 1 F H H Q / *.t.h./ *.x.,.h.*./ +.Q J O./ D / ,.8.7.( S s 2 / ",
"T #.#.6.S.S.;.b.A.S.K.S.8.<.| / #.+.t.l.6.%.>.*.k.,.! ,.Q j 1 + ",
"G / 8.N.[.|.b.R.^.A..X.XK.4.+.;.I.M.S.'./.K.!.A.A.M.g.#.*.z.h + ",
"z #.A.C.I.}.L. X{.].}.}.Z.o.;.i.^.v.r.R.R.R.R.v.A.N.M.^ 2.U._ 6 ",
"T #.6.l.M.A.;.H.L.f.p.C._._._.T.v.G.U.L.n.C.B.J.E.U.s.i.a.s. .N ",
"3 D Q 6.5.l.t.u.u.U U c.~.K.K.I.v.B.R.B.f.s.1.I.R.M.r.1.2.I E w ",
"z Q #.7.l.b.j.=.V.2.e.c.Z.C.K.c.a.C.B.0.a.B.a.C.E.C.s.1.s.o.Z c ",
"/ @.t.t.Z.N.l.V.V.V.c.M.J.F.v.f.p.p.q.p.d.V.P.B.v.0.d.d.f.d.` o.",
"z G n ] x.~.a.v.a.a.M.s.y.o.} { L B ^ X.0.y.a.p.X.E ` 9.F.w.9.w.",
"Q U / ~ ^ ~ ;.M.v.v.V.J.v.2.u.[ U ) } o.X.2.} :.w.1.o.f.F.d.w.o.",
"/ 2.4.;.' ~ 4.v.V.A.v.d.v.s.v.2.2.r.2.-.v.F.y.a.q.n.F.f.w.n.d.9.",
"2 k b k n &.] $.;.' B ~ [ ..] U U L K B 2.' )  .f q.d.{ ` 9.F.w.",
"w n R B ] [ ..' t.[ ..r.&.-.-.| | [ ' B R C  .y.L 2.p.0.d.:.w.9.",
"R [ $.....&.a.;.r.z.t.l.N.x.N.M.5.a.z.=.r.a.0.2. .{ X.0.X.{ A x ",
"o 8 o d b ] ;.D h F G G ;.G n / b k F K ;.r.b b N p , f 4   q X ",
"h B M { U r.;.W ] ^ [ [ i.<.[ i.| W ' ..] -.) ' K m V ) b t v 9 ",
"C ' o.] -.-...4.A.E.^.J.N.i.t.r.u.r.2.;.:.J.v.d.H.u.{  .X.C A I ",
"  & =   h ..o.M s.E.E.R.-.0 h b n h d d X.B.C C  .x e . ; $   7 ",
"w b h 6 B F v  .r.R.J.M.4.U [ [ { ' ) R X.u.X.{ A C b 7 x x 6 t ",
"B L N f h v _ 1.:.r.2.5.d.<.1.-.W y.p.1.:.q.{  .` ) V v v V A V ",
"@ @   & 5 g { E g v Z m C v g v { } v @ * x ; * * 6 * # @ X #   ",
"9 e < h e E -._ A I I Z .. .I A 0.X.E N V E v t V V t y 4 4 t 4 ",
"< r r v e v E m A A ) ` X._ )  .B C  .E ` _ ) A V _ V x 4 y x V "
};
